<svg xmlns="http://www.w3.org/2000/svg" viewBox="0 0 1200 780" width="1200" height="780">

  <style>
    text { font-family: -apple-system, BlinkMacSystemFont, "Segoe UI", Roboto, Helvetica, Arial, sans-serif; }
    .title { fill: #0d0d0d; font-size: 25px; font-weight: 650; }
    .subtitle { fill: #6e6e80; font-size: 13px; }
    .group-label { fill: #6e6e80; font-size: 12px; font-weight: 650; letter-spacing: .04em; }
    .node-title { fill: #0d0d0d; font-size: 15px; font-weight: 650; }
    .node-text { fill: #6e6e80; font-size: 12px; }
    .small { fill: #6e6e80; font-size: 11px; }
    .warn { fill: #9a3412; font-size: 12px; font-weight: 650; }
  </style>


  <defs>
    <marker id="arrow" markerWidth="10" markerHeight="7" refX="9" refY="3.5" orient="auto">
      <polygon points="0 0, 10 3.5, 0 7" fill="#71717a"/>
    </marker>
    <marker id="arrow-green" markerWidth="10" markerHeight="7" refX="9" refY="3.5" orient="auto">
      <polygon points="0 0, 10 3.5, 0 7" fill="#10a37f"/>
    </marker>
    <marker id="arrow-orange" markerWidth="10" markerHeight="7" refX="9" refY="3.5" orient="auto">
      <polygon points="0 0, 10 3.5, 0 7" fill="#f97316"/>
    </marker>
    <marker id="arrow-blue" markerWidth="10" markerHeight="7" refX="9" refY="3.5" orient="auto">
      <polygon points="0 0, 10 3.5, 0 7" fill="#1d4ed8"/>
    </marker>
  </defs>

  <rect width="1200" height="780" fill="#ffffff"/>
  <text x="600" y="36" text-anchor="middle" class="title">Codex Ralph Vault Loop</text>
  <text x="600" y="58" text-anchor="middle" class="subtitle">Codex App / CLI overlay with local gates, MCP advisors, and external memory</text>
  <rect x="44" y="92" width="1112" height="96" rx="10" fill="none" stroke="#e5e5e5" stroke-width="1" stroke-dasharray="5,4"/>
  <text x="60" y="112" text-anchor="start" class="group-label">ENTRY AND INSTRUCTION</text>
  <rect x="80" y="124" width="150" height="44" rx="8" fill="#ffffff" stroke="#e5e5e5" stroke-width="1.5"/>
  <text x="155" y="153" text-anchor="middle" class="node-title">User</text>
  <rect x="290" y="112" width="184" height="64" rx="8" fill="#ffffff" stroke="#e5e5e5" stroke-width="1.5"/>
  <rect x="290" y="112" width="4" height="64" rx="2" fill="#10a37f"/>
  <text x="382" y="141" text-anchor="middle" class="node-title">Codex App / CLI</text>
  <text x="382" y="161" text-anchor="middle" class="node-text">local session</text>
  <rect x="540" y="112" width="168" height="64" rx="8" fill="#ffffff" stroke="#e5e5e5" stroke-width="1.5"/>
  <text x="624" y="141" text-anchor="middle" class="node-title">AGENTS.md</text>
  <text x="624" y="161" text-anchor="middle" class="node-text">project rules</text>
  <rect x="744" y="112" width="184" height="64" rx="8" fill="#ffffff" stroke="#e5e5e5" stroke-width="1.5"/>
  <text x="836" y="141" text-anchor="middle" class="node-title">.codex/config</text>
  <text x="836" y="161" text-anchor="middle" class="node-text">MCP declarations</text>
  <rect x="968" y="112" width="144" height="64" rx="8" fill="#ffffff" stroke="#e5e5e5" stroke-width="1.5"/>
  <text x="1040" y="141" text-anchor="middle" class="node-title">Global install</text>
  <text x="1040" y="161" text-anchor="middle" class="node-text">safe symlinks</text>
  <rect x="44" y="224" width="520" height="208" rx="10" fill="none" stroke="#e5e5e5" stroke-width="1" stroke-dasharray="5,4"/>
  <text x="60" y="244" text-anchor="start" class="group-label">CODEX CONTROL PLANE</text>
  <rect x="92" y="276" width="188" height="84" rx="8" fill="#ffffff" stroke="#e5e5e5" stroke-width="1.5"/>
  <rect x="92" y="276" width="4" height="84" rx="2" fill="#10a37f"/>
  <text x="186" y="305" text-anchor="middle" class="node-title">Codex main</text>
  <text x="186" y="325" text-anchor="middle" class="node-text">final owner</text>
  <text x="186" y="342" text-anchor="middle" class="node-text">edits and synthesis</text>
  <rect x="336" y="264" width="168" height="64" rx="8" fill="#ffffff" stroke="#e5e5e5" stroke-width="1.5"/>
  <text x="420" y="293" text-anchor="middle" class="node-title">33 skills</text>
  <text x="420" y="313" text-anchor="middle" class="node-text">repo-local workflows</text>
  <rect x="336" y="348" width="168" height="64" rx="8" fill="#ffffff" stroke="#e5e5e5" stroke-width="1.5"/>
  <text x="420" y="377" text-anchor="middle" class="node-title">13 subagents</text>
  <text x="420" y="397" text-anchor="middle" class="node-text">narrow TOML roles</text>
  <rect x="636" y="224" width="520" height="208" rx="10" fill="none" stroke="#e5e5e5" stroke-width="1" stroke-dasharray="5,4"/>
  <text x="652" y="244" text-anchor="start" class="group-label">LOCAL POLICY AND VERIFICATION</text>
  <rect x="684" y="264" width="168" height="64" rx="8" fill="#ffffff" stroke="#e5e5e5" stroke-width="1.5"/>
  <text x="768" y="293" text-anchor="middle" class="node-title">Hooks</text>
  <text x="768" y="313" text-anchor="middle" class="node-text">session/tool/stop</text>
  <rect x="916" y="264" width="168" height="64" rx="8" fill="#ffffff" stroke="#e5e5e5" stroke-width="1.5"/>
  <rect x="916" y="264" width="4" height="64" rx="2" fill="#f97316"/>
  <text x="1000" y="293" text-anchor="middle" class="node-title">RED guard</text>
  <text x="1000" y="313" text-anchor="middle" class="node-text">local-only block</text>
  <rect x="684" y="348" width="168" height="64" rx="8" fill="#ffffff" stroke="#e5e5e5" stroke-width="1.5"/>
  <text x="768" y="377" text-anchor="middle" class="node-title">Cost router</text>
  <text x="768" y="397" text-anchor="middle" class="node-text">safe route JSON</text>
  <rect x="916" y="348" width="168" height="64" rx="8" fill="#ffffff" stroke="#e5e5e5" stroke-width="1.5"/>
  <rect x="916" y="348" width="4" height="64" rx="2" fill="#10a37f"/>
  <text x="1000" y="377" text-anchor="middle" class="node-title">Gates / evals</text>
  <text x="1000" y="397" text-anchor="middle" class="node-text">reports and scorecards</text>
  <rect x="44" y="472" width="520" height="172" rx="10" fill="none" stroke="#e5e5e5" stroke-width="1" stroke-dasharray="5,4"/>
  <text x="60" y="492" text-anchor="start" class="group-label">MCP ADVISORY LAYER</text>
  <rect x="88" y="528" width="160" height="64" rx="8" fill="#ffffff" stroke="#e5e5e5" stroke-width="1.5"/>
  <text x="168" y="557" text-anchor="middle" class="node-title">ralph_coding</text>
  <text x="168" y="577" text-anchor="middle" class="node-text">model MCP</text>
  <rect x="280" y="528" width="112" height="64" rx="8" fill="#ffffff" stroke="#e5e5e5" stroke-width="1.5"/>
  <text x="336" y="557" text-anchor="middle" class="node-title">Z.ai MCPs</text>
  <text x="336" y="577" text-anchor="middle" class="node-text">reader/vision</text>
  <rect x="424" y="528" width="112" height="64" rx="8" fill="#ffffff" stroke="#e5e5e5" stroke-width="1.5"/>
  <text x="480" y="557" text-anchor="middle" class="node-title">MiniMax</text>
  <text x="480" y="577" text-anchor="middle" class="node-text">fast advice</text>
  <rect x="636" y="472" width="520" height="172" rx="10" fill="none" stroke="#e5e5e5" stroke-width="1" stroke-dasharray="5,4"/>
  <text x="652" y="492" text-anchor="start" class="group-label">MEMORY AND HANDOFF</text>
  <rect x="684" y="528" width="188" height="64" rx="8" fill="#ffffff" stroke="#e5e5e5" stroke-width="1.5"/>
  <rect x="684" y="528" width="4" height="64" rx="2" fill="#1d4ed8"/>
  <text x="778" y="557" text-anchor="middle" class="node-title">~/.ralph-codex</text>
  <text x="778" y="577" text-anchor="middle" class="node-text">runtime state</text>
  <rect x="936" y="528" width="176" height="64" rx="8" fill="#ffffff" stroke="#e5e5e5" stroke-width="1.5"/>
  <text x="1024" y="557" text-anchor="middle" class="node-title">Curated vault</text>
  <text x="1024" y="577" text-anchor="middle" class="node-text">reviewed recall</text>
  <line x1="230" y1="146" x2="290" y2="146" stroke="#10a37f" stroke-width="1.6" marker-end="url(#arrow-green)"/>
  <line x1="474" y1="146" x2="540" y2="146" stroke="#71717a" stroke-width="1.6" marker-end="url(#arrow)"/>
  <line x1="708" y1="146" x2="744" y2="146" stroke="#71717a" stroke-width="1.6" marker-end="url(#arrow)"/>
  <path d="M 382 176 C 330 224 244 244 188 276" stroke="#10a37f" stroke-width="1.6" fill="none" marker-end="url(#arrow-green)"/>
  <path d="M 280 318 C 312 318 312 296 336 296" stroke="#71717a" stroke-width="1.6" fill="none" marker-end="url(#arrow)"/>
  <path d="M 280 338 C 312 338 312 380 336 380" stroke="#71717a" stroke-width="1.6" fill="none" marker-end="url(#arrow)"/>
  <line x1="504" y1="296" x2="684" y2="296" stroke="#71717a" stroke-width="1.6" marker-end="url(#arrow)"/>
  <line x1="504" y1="380" x2="684" y2="380" stroke="#71717a" stroke-width="1.6" marker-end="url(#arrow)"/>
  <line x1="852" y1="296" x2="916" y2="296" stroke="#f97316" stroke-width="1.6" marker-end="url(#arrow-orange)"/>
  <line x1="852" y1="380" x2="916" y2="380" stroke="#10a37f" stroke-width="1.6" marker-end="url(#arrow-green)"/>
  <path d="M 768 412 C 704 456 552 472 480 528" stroke="#71717a" stroke-width="1.6" fill="none" marker-end="url(#arrow)"/>
  <path d="M 768 412 C 700 456 408 468 336 528" stroke="#71717a" stroke-width="1.6" fill="none" marker-end="url(#arrow)"/>
  <path d="M 768 412 C 692 444 260 456 168 528" stroke="#71717a" stroke-width="1.6" fill="none" marker-end="url(#arrow)"/>
  <path d="M 1000 412 C 990 468 972 500 1024 528" stroke="#10a37f" stroke-width="1.6" fill="none" marker-end="url(#arrow-green)"/>
  <path d="M 768 412 C 760 468 736 500 778 528" stroke="#1d4ed8" stroke-width="1.6" fill="none" marker-end="url(#arrow-blue)"/>
  <rect x="84" y="700" width="1032" height="44" rx="8" fill="#ffffff" stroke="#e5e5e5" stroke-width="1"/>
  <text x="104" y="726" text-anchor="start" class="small">Invariant:</text>
  <text x="174" y="726" text-anchor="start" class="small">OpenAI orchestrates; MCP advisors never become direct providers; local memory stays outside the repo.</text>
</svg>
