<svg xmlns="http://www.w3.org/2000/svg" viewBox="0 0 1200 780" width="1200" height="780">

  <style>
    text { font-family: -apple-system, BlinkMacSystemFont, "Segoe UI", Roboto, Helvetica, Arial, sans-serif; }
    .title { fill: #0d0d0d; font-size: 25px; font-weight: 650; }
    .subtitle { fill: #6e6e80; font-size: 13px; }
    .group-label { fill: #6e6e80; font-size: 12px; font-weight: 650; letter-spacing: .04em; }
    .node-title { fill: #0d0d0d; font-size: 15px; font-weight: 650; }
    .node-text { fill: #6e6e80; font-size: 12px; }
    .small { fill: #6e6e80; font-size: 11px; }
    .warn { fill: #9a3412; font-size: 12px; font-weight: 650; }
  </style>


  <defs>
    <marker id="arrow" markerWidth="10" markerHeight="7" refX="9" refY="3.5" orient="auto">
      <polygon points="0 0, 10 3.5, 0 7" fill="#71717a"/>
    </marker>
    <marker id="arrow-green" markerWidth="10" markerHeight="7" refX="9" refY="3.5" orient="auto">
      <polygon points="0 0, 10 3.5, 0 7" fill="#10a37f"/>
    </marker>
    <marker id="arrow-orange" markerWidth="10" markerHeight="7" refX="9" refY="3.5" orient="auto">
      <polygon points="0 0, 10 3.5, 0 7" fill="#f97316"/>
    </marker>
    <marker id="arrow-blue" markerWidth="10" markerHeight="7" refX="9" refY="3.5" orient="auto">
      <polygon points="0 0, 10 3.5, 0 7" fill="#1d4ed8"/>
    </marker>
  </defs>

  <rect width="1200" height="780" fill="#ffffff"/>
  <text x="600" y="36" text-anchor="middle" class="title">Memory, Evaluation, and Handoff Lifecycle</text>
  <text x="600" y="58" text-anchor="middle" class="subtitle">Hooks create bounded state; gates verify; recall only injects scoped safe context</text>
  <rect x="56" y="96" width="1088" height="116" rx="10" fill="none" stroke="#e5e5e5" stroke-width="1" stroke-dasharray="5,4"/>
  <text x="72" y="116" text-anchor="start" class="group-label">SESSION CONTEXT</text>
  <rect x="92" y="132" width="176" height="64" rx="8" fill="#ffffff" stroke="#e5e5e5" stroke-width="1.5"/>
  <text x="180" y="161" text-anchor="middle" class="node-title">SessionStart</text>
  <text x="180" y="181" text-anchor="middle" class="node-text">wakeup.py</text>
  <rect x="336" y="132" width="196" height="64" rx="8" fill="#ffffff" stroke="#e5e5e5" stroke-width="1.5"/>
  <text x="434" y="161" text-anchor="middle" class="node-title">Project layers</text>
  <text x="434" y="181" text-anchor="middle" class="node-text">L0-L4 bounded</text>
  <rect x="600" y="132" width="196" height="64" rx="8" fill="#ffffff" stroke="#e5e5e5" stroke-width="1.5"/>
  <text x="698" y="161" text-anchor="middle" class="node-title">Recall gates</text>
  <text x="698" y="181" text-anchor="middle" class="node-text">scope + TTL + size</text>
  <rect x="864" y="132" width="196" height="64" rx="8" fill="#ffffff" stroke="#e5e5e5" stroke-width="1.5"/>
  <text x="962" y="161" text-anchor="middle" class="node-title">Prompt context</text>
  <text x="962" y="181" text-anchor="middle" class="node-text">non-authoritative</text>
  <rect x="56" y="260" width="1088" height="172" rx="10" fill="none" stroke="#e5e5e5" stroke-width="1" stroke-dasharray="5,4"/>
  <text x="72" y="280" text-anchor="start" class="group-label">TOOL AND VALIDATION LOOP</text>
  <rect x="92" y="318" width="176" height="64" rx="8" fill="#ffffff" stroke="#e5e5e5" stroke-width="1.5"/>
  <text x="180" y="347" text-anchor="middle" class="node-title">UserPromptSubmit</text>
  <text x="180" y="367" text-anchor="middle" class="node-text">classify + route</text>
  <rect x="336" y="318" width="196" height="64" rx="8" fill="#ffffff" stroke="#e5e5e5" stroke-width="1.5"/>
  <text x="434" y="347" text-anchor="middle" class="node-title">PostToolUse</text>
  <text x="434" y="367" text-anchor="middle" class="node-text">bounded ledgers</text>
  <rect x="600" y="318" width="196" height="64" rx="8" fill="#ffffff" stroke="#e5e5e5" stroke-width="1.5"/>
  <rect x="600" y="318" width="4" height="64" rx="2" fill="#10a37f"/>
  <text x="698" y="347" text-anchor="middle" class="node-title">Gates / evals</text>
  <text x="698" y="367" text-anchor="middle" class="node-text">tests + scorecards</text>
  <rect x="864" y="318" width="196" height="64" rx="8" fill="#ffffff" stroke="#e5e5e5" stroke-width="1.5"/>
  <text x="962" y="347" text-anchor="middle" class="node-title">Reports</text>
  <text x="962" y="367" text-anchor="middle" class="node-text">json + markdown</text>
  <rect x="56" y="480" width="1088" height="176" rx="10" fill="none" stroke="#e5e5e5" stroke-width="1" stroke-dasharray="5,4"/>
  <text x="72" y="500" text-anchor="start" class="group-label">MEMORY AND HANDOFF</text>
  <rect x="92" y="540" width="176" height="64" rx="8" fill="#ffffff" stroke="#e5e5e5" stroke-width="1.5"/>
  <rect x="92" y="540" width="4" height="64" rx="2" fill="#f97316"/>
  <text x="180" y="569" text-anchor="middle" class="node-title">RED skip</text>
  <text x="180" y="589" text-anchor="middle" class="node-text">no durable write</text>
  <rect x="336" y="540" width="196" height="64" rx="8" fill="#ffffff" stroke="#e5e5e5" stroke-width="1.5"/>
  <text x="434" y="569" text-anchor="middle" class="node-title">Runtime memory</text>
  <text x="434" y="589" text-anchor="middle" class="node-text">project-scoped</text>
  <rect x="600" y="540" width="196" height="64" rx="8" fill="#ffffff" stroke="#e5e5e5" stroke-width="1.5"/>
  <text x="698" y="569" text-anchor="middle" class="node-title">Vault inbox</text>
  <text x="698" y="589" text-anchor="middle" class="node-text">quarantine</text>
  <rect x="864" y="540" width="196" height="64" rx="8" fill="#ffffff" stroke="#e5e5e5" stroke-width="1.5"/>
  <rect x="864" y="540" width="4" height="64" rx="2" fill="#1d4ed8"/>
  <text x="962" y="569" text-anchor="middle" class="node-title">Stop handoff</text>
  <text x="962" y="589" text-anchor="middle" class="node-text">sanitized summary</text>
  <line x1="268" y1="164" x2="336" y2="164" stroke="#10a37f" stroke-width="1.6" marker-end="url(#arrow-green)"/>
  <line x1="532" y1="164" x2="600" y2="164" stroke="#71717a" stroke-width="1.6" marker-end="url(#arrow)"/>
  <line x1="796" y1="164" x2="864" y2="164" stroke="#71717a" stroke-width="1.6" marker-end="url(#arrow)"/>
  <path d="M 960 196 C 960 238 180 250 180 318" stroke="#1d4ed8" stroke-width="1.6" fill="none" marker-end="url(#arrow-blue)"/>
  <line x1="268" y1="350" x2="336" y2="350" stroke="#71717a" stroke-width="1.6" marker-end="url(#arrow)"/>
  <line x1="532" y1="350" x2="600" y2="350" stroke="#10a37f" stroke-width="1.6" marker-end="url(#arrow-green)"/>
  <line x1="796" y1="350" x2="864" y2="350" stroke="#71717a" stroke-width="1.6" marker-end="url(#arrow)"/>
  <path d="M 180 382 C 160 450 158 500 180 540" stroke="#f97316" stroke-width="1.6" fill="none" marker-end="url(#arrow-orange)"/>
  <path d="M 434 382 C 430 454 430 500 434 540" stroke="#1d4ed8" stroke-width="1.6" fill="none" marker-end="url(#arrow-blue)"/>
  <path d="M 698 382 C 690 454 690 500 698 540" stroke="#1d4ed8" stroke-width="1.6" fill="none" marker-end="url(#arrow-blue)"/>
  <path d="M 962 382 C 970 454 970 500 962 540" stroke="#10a37f" stroke-width="1.6" fill="none" marker-end="url(#arrow-green)"/>
  <line x1="532" y1="572" x2="600" y2="572" stroke="#71717a" stroke-width="1.6" marker-end="url(#arrow)"/>
  <line x1="796" y1="572" x2="864" y2="572" stroke="#71717a" stroke-width="1.6" marker-end="url(#arrow)"/>
  <rect x="96" y="708" width="1008" height="40" rx="8" fill="#ffffff" stroke="#e5e5e5" stroke-width="1"/>
  <text x="116" y="733" text-anchor="start" class="small">Recall reads curated or scoped runtime memory only after identity and safety gates pass.</text>
</svg>
