<svg xmlns="http://www.w3.org/2000/svg" viewBox="0 0 1180 900" width="1180" height="900">
  <defs>
    <marker id="arrowA" markerWidth="10" markerHeight="7" refX="9" refY="3.5" orient="auto">
      <polygon points="0 0, 10 3.5, 0 7" fill="#10a37f"/>
    </marker>
    <marker id="arrowB" markerWidth="10" markerHeight="7" refX="9" refY="3.5" orient="auto">
      <polygon points="0 0, 10 3.5, 0 7" fill="#0f766e"/>
    </marker>
    <marker id="arrowC" markerWidth="10" markerHeight="7" refX="9" refY="3.5" orient="auto">
      <polygon points="0 0, 10 3.5, 0 7" fill="#0891b2"/>
    </marker>
    <marker id="arrowE" markerWidth="10" markerHeight="7" refX="9" refY="3.5" orient="auto">
      <polygon points="0 0, 10 3.5, 0 7" fill="#f59e0b"/>
    </marker>
    <marker id="arrowF" markerWidth="10" markerHeight="7" refX="9" refY="3.5" orient="auto">
      <polygon points="0 0, 10 3.5, 0 7" fill="#64748b"/>
    </marker>
    <marker id="arrowG" markerWidth="10" markerHeight="7" refX="9" refY="3.5" orient="auto">
      <polygon points="0 0, 10 3.5, 0 7" fill="#10a37f"/>
    </marker>
    <marker id="arrowH" markerWidth="10" markerHeight="7" refX="9" refY="3.5" orient="auto">
      <polygon points="0 0, 10 3.5, 0 7" fill="#94a3b8"/>
    </marker>
    <style>
    text { font-family: 'Helvetica Neue', Helvetica, Arial, 'PingFang SC', 'Microsoft YaHei', 'Microsoft JhengHei', 'SimHei', sans-serif; }
    .title { font-size: 24px; font-weight: 700; fill: #0f172a; }
    .subtitle { font-size: 13px; font-weight: 500; fill: #64748b; }
    .section { font-size: 13px; font-weight: 700; fill: #10a37f; letter-spacing: 1.4px; }
    .section-sub { font-size: 12px; font-weight: 500; fill: #94a3b8; }
    .node-title { font-size: 18px; font-weight: 700; fill: #0f172a; }
    .node-sub { font-size: 12px; font-weight: 500; fill: #475569; }
    .node-type { font-size: 11px; font-weight: 700; fill: #94a3b8; letter-spacing: 0.08em; }
    .arrow-label { font-size: 12px; font-weight: 600; fill: #475569; }
    .legend { font-size: 12px; font-weight: 500; fill: #475569; }
    .footnote { font-size: 12px; font-weight: 500; fill: #94a3b8; }
    </style>
  </defs>
  <rect width="1180.0" height="900.0" fill="#ffffff"/>
  <text x="48.0" y="48" text-anchor="start" class="title">RAG System Architecture</text>
  <text x="48.0" y="72" text-anchor="start" class="subtitle">OpenAI-style retrieval augmented generation flow with ingestion, retrieval, model orchestration, and observability</text>
  <line x1="48" y1="100" x2="1132.0" y2="100" stroke="#e2e8f0" stroke-width="1"/>
  <rect x="40.0" y="118.0" width="1100.0" height="116.0" rx="16.0" fill="none" stroke="#e2e8f0" stroke-width="1.4" stroke-dasharray="5 4"/>
  <text x="58.0" y="142.0" class="section">ENTRY</text>
  <rect x="40.0" y="270.0" width="1100.0" height="150.0" rx="16.0" fill="none" stroke="#e2e8f0" stroke-width="1.4" stroke-dasharray="5 4"/>
  <text x="58.0" y="294.0" class="section">RETRIEVAL + CONTEXT</text>
  <rect x="40.0" y="456.0" width="1100.0" height="150.0" rx="16.0" fill="none" stroke="#e2e8f0" stroke-width="1.4" stroke-dasharray="5 4"/>
  <text x="58.0" y="480.0" class="section">KNOWLEDGE INGESTION</text>
  <rect x="40.0" y="636.0" width="1100.0" height="110.0" rx="16.0" fill="none" stroke="#e2e8f0" stroke-width="1.4" stroke-dasharray="5 4"/>
  <text x="58.0" y="660.0" class="section">OPERATIONS</text>
  <path d="M 230.0,176.0 L 280.0,176.0" fill="none" stroke="#10a37f" stroke-width="2.0" marker-end="url(#arrowA)"/>
  <path d="M 444.0,176.0 L 490.0,176.0" fill="none" stroke="#10a37f" stroke-width="2.0" marker-end="url(#arrowA)"/>
  <path d="M 674.0,176.0 L 720.0,176.0" fill="none" stroke="#10a37f" stroke-width="2.0" marker-end="url(#arrowA)"/>
  <path d="M 812.0,216.0 L 812.0,246.0 L 187.0,246.0 L 187.0,318.0" fill="none" stroke="#10a37f" stroke-width="2.0" marker-end="url(#arrowA)"/>
  <path d="M 282.0,350.0 L 348.0,350.0" fill="none" stroke="#0891b2" stroke-width="2.0" marker-end="url(#arrowC)"/>
  <path d="M 550.0,350.0 L 620.0,350.0" fill="none" stroke="#0891b2" stroke-width="2.0" marker-end="url(#arrowC)"/>
  <path d="M 794.0,350.0 L 870.0,350.0" fill="none" stroke="#f59e0b" stroke-width="2.0" marker-end="url(#arrowE)"/>
  <path d="M 973.0,312.0 L 1006.0,246.0 L 1029.0,246.0 L 1029.0,210.0" fill="none" stroke="#10a37f" stroke-width="2.0" marker-end="url(#arrowA)"/>
  <path d="M 1029.0,140.0 L 1029.0,106.0 L 362.0,106.0 L 362.0,144.0" fill="none" stroke="#10a37f" stroke-width="2.0" marker-end="url(#arrowA)"/>
  <path d="M 274.0,534.0 L 340.0,534.0" fill="none" stroke="#f59e0b" stroke-width="2.0" marker-end="url(#arrowE)"/>
  <path d="M 536.0,534.0 L 604.0,534.0" fill="none" stroke="#0f766e" stroke-width="2.0" marker-end="url(#arrowB)"/>
  <path d="M 709.0,496.0 L 709.0,475.6 L 707.0,475.6 L 707.0,398.0" fill="none" stroke="#0f766e" stroke-width="2.0" marker-end="url(#arrowB)"/>
  <path d="M 536.0,534.0 L 560.0,590.0 L 870.0,590.0 L 890.0,535.0" fill="none" stroke="#0f766e" stroke-width="2.0" marker-end="url(#arrowB)" stroke-dasharray="6,4"/>
  <path d="M 973.0,492.0 L 973.0,388.0" fill="none" stroke="#0891b2" stroke-width="2.0" marker-end="url(#arrowC)"/>
  <path d="M 812.0,216.0 L 840.0,246.0 L 840.0,622.0 L 203.0,622.0 L 203.0,682.0" fill="none" stroke="#10a37f" stroke-width="2.0" marker-end="url(#arrowA)" stroke-dasharray="6,4"/>
  <path d="M 310.0,705.0 L 390.0,705.0" fill="none" stroke="#10a37f" stroke-width="2.0" marker-end="url(#arrowA)"/>
  <path d="M 584.0,705.0 L 664.0,705.0" fill="none" stroke="#10a37f" stroke-width="2.0" marker-end="url(#arrowA)"/>
  <rect x="86.0" y="144.0" width="144.0" height="64.0" rx="14.0" fill="#ffffff" stroke="#dce5e3" stroke-width="2.0"/>
  <circle cx="112.0" cy="176.0" r="18" fill="#dbeafe" stroke="#dce5e3" stroke-width="1.6"/>
  <circle cx="112.0" cy="170.0" r="5" fill="#dce5e3"/>
  <path d="M 102.0 187.0 Q 112.0 178.0 122.0 187.0" fill="none" stroke="#dce5e3" stroke-width="2"/>
  <text x="140.0" y="162.0" text-anchor="middle" class="node-type">QUERY</text>
  <text x="150.0" y="192.0" text-anchor="start" class="node-title">User</text>
  <rect x="280.0" y="144.0" width="164.0" height="64.0" rx="14.0" fill="#ffffff" stroke="#dce5e3" stroke-width="1.8"/>
  <text x="362.0" y="162.0" text-anchor="middle" class="node-type">CLIENT</text>
  <text x="362.0" y="182.0" text-anchor="middle" class="node-title">Application</text>
  <rect x="490.0" y="140.0" width="184.0" height="72.0" rx="14.0" fill="#ffffff" stroke="#10a37f" stroke-width="2.0"/>
  <rect x="496.0" y="146.0" width="172.0" height="60.0" rx="11.0" fill="none" stroke="#10a37f" stroke-width="1.2" opacity="0.65"/>
  <text x="582.0" y="158.0" text-anchor="middle" class="node-type">POLICY</text>
  <text x="582.0" y="182.0" text-anchor="middle" class="node-title">API Gateway</text>
  <path d="M 742.0 136.0 L 882.0 136.0 L 904.0 176.0 L 882.0 216.0 L 742.0 216.0 L 720.0 176.0 Z" fill="#ffffff" stroke="#10a37f" stroke-width="2.0"/>
  <text x="812.0" y="154.0" text-anchor="middle" class="node-type">CONTROL</text>
  <text x="812.0" y="182.0" text-anchor="middle" class="node-title">RAG Orchestrator</text>
  <rect x="92.0" y="318.0" width="190.0" height="64.0" rx="14.0" fill="#ffffff" stroke="#dce5e3" stroke-width="1.8"/>
  <text x="187.0" y="336.0" text-anchor="middle" class="node-type">PROMPT</text>
  <text x="187.0" y="356.0" text-anchor="middle" class="node-title">Query Rewrite</text>
  <rect x="348.0" y="312.0" width="202.0" height="76.0" rx="14.0" fill="#ffffff" stroke="#10a37f" stroke-width="2.0"/>
  <rect x="354.0" y="318.0" width="190.0" height="64.0" rx="11.0" fill="none" stroke="#10a37f" stroke-width="1.2" opacity="0.65"/>
  <text x="449.0" y="330.0" text-anchor="middle" class="node-type">VECTORIZE</text>
  <text x="449.0" y="356.0" text-anchor="middle" class="node-title">Embedding Model</text>
  <ellipse cx="707.0" cy="314.0" rx="43.5" ry="12.0" fill="#ffffff" stroke="#dce5e3" stroke-width="2.2"/>
  <rect x="620.0" y="314.0" width="174.0" height="72.0" fill="#ffffff" stroke="#dce5e3" stroke-width="2.2"/>
  <ellipse cx="707.0" cy="386.0" rx="43.5" ry="12.0" fill="#ffffff" stroke="#dce5e3" stroke-width="2.2"/>
  <ellipse cx="707.0" cy="338.48" rx="43.5" ry="12.0" fill="none" stroke="#dce5e3" stroke-opacity="0.45" stroke-width="1.2"/>
  <ellipse cx="707.0" cy="359.6" rx="43.5" ry="12.0" fill="none" stroke="#dce5e3" stroke-opacity="0.25" stroke-width="1.2"/>
  <text x="707.0" y="344.0" text-anchor="middle" class="node-title">Vector Store</text>
  <path d="M 870.0 312.0 L 1059.28 312.0 L 1076.0 328.72 L 1076.0 388.0 L 870.0 388.0 Z" fill="#ffffff" stroke="#dce5e3" stroke-width="2.0"/>
  <path d="M 1059.28 312.0 L 1059.28 328.72 L 1076.0 328.72" fill="none" stroke="#dce5e3" stroke-width="2.0"/>
  <line x1="888.0" y1="338.0" x2="1048.0" y2="338.0" stroke="#c4b5fd" stroke-width="1.2"/>
  <line x1="888.0" y1="352.0" x2="1048.0" y2="352.0" stroke="#c4b5fd" stroke-width="1.2"/>
  <line x1="888.0" y1="366.0" x2="1048.0" y2="366.0" stroke="#c4b5fd" stroke-width="1.2"/>
  <line x1="888.0" y1="380.0" x2="1048.0" y2="380.0" stroke="#c4b5fd" stroke-width="1.2"/>
  <text x="973.0" y="330.0" text-anchor="middle" class="node-type">RANK + PACK</text>
  <text x="973.0" y="414.0" text-anchor="middle" class="node-title">Context Builder</text>
  <path d="M 84.0 518.0 L 105.6 518.0 L 115.32 500.0 L 138.0 500.0 L 274.0 500.0 L 274.0 568.0 L 84.0 568.0 Z" fill="#ffffff" stroke="#dce5e3" stroke-width="2.0"/>
  <line x1="106.0" y1="542.0" x2="252.0" y2="542.0" stroke="#dce5e3" stroke-opacity="0.35" stroke-width="1.2"/>
  <line x1="106.0" y1="556.0" x2="252.0" y2="556.0" stroke="#dce5e3" stroke-opacity="0.35" stroke-width="1.2"/>
  <line x1="106.0" y1="570.0" x2="252.0" y2="570.0" stroke="#dce5e3" stroke-opacity="0.35" stroke-width="1.2"/>
  <text x="179.0" y="518.0" text-anchor="middle" class="node-type">FILES + WEB</text>
  <text x="179.0" y="594.0" text-anchor="middle" class="node-title">Source Docs</text>
  <rect x="340.0" y="500.0" width="196.0" height="68.0" rx="14.0" fill="#ffffff" stroke="#dce5e3" stroke-width="1.8"/>
  <text x="438.0" y="518.0" text-anchor="middle" class="node-type">PIPELINE</text>
  <text x="438.0" y="540.0" text-anchor="middle" class="node-title">Chunk + Clean</text>
  <rect x="604.0" y="496.0" width="210.0" height="76.0" rx="14.0" fill="#ffffff" stroke="#10a37f" stroke-width="2.0"/>
  <rect x="610.0" y="502.0" width="198.0" height="64.0" rx="11.0" fill="none" stroke="#10a37f" stroke-width="1.2" opacity="0.65"/>
  <text x="709.0" y="514.0" text-anchor="middle" class="node-type">INGEST</text>
  <text x="709.0" y="540.0" text-anchor="middle" class="node-title">Batch Embeddings</text>
  <ellipse cx="973.0" cy="502.75" rx="41.5" ry="10.75" fill="#ffffff" stroke="#dce5e3" stroke-width="2.2"/>
  <rect x="890.0" y="502.75" width="166.0" height="64.5" fill="#ffffff" stroke="#dce5e3" stroke-width="2.2"/>
  <ellipse cx="973.0" cy="567.25" rx="41.5" ry="10.75" fill="#ffffff" stroke="#dce5e3" stroke-width="2.2"/>
  <ellipse cx="973.0" cy="524.68" rx="41.5" ry="10.75" fill="none" stroke="#dce5e3" stroke-opacity="0.45" stroke-width="1.2"/>
  <ellipse cx="973.0" cy="543.6" rx="41.5" ry="10.75" fill="none" stroke="#dce5e3" stroke-opacity="0.25" stroke-width="1.2"/>
  <text x="973.0" y="529.0" text-anchor="middle" class="node-title">Metadata DB</text>
  <rect x="944.0" y="140.0" width="170.0" height="70.0" rx="14.0" fill="#ffffff" stroke="#10a37f" stroke-width="2.0"/>
  <rect x="950.0" y="146.0" width="158.0" height="58.0" rx="11.0" fill="none" stroke="#10a37f" stroke-width="1.2" opacity="0.65"/>
  <text x="1029.0" y="158.0" text-anchor="middle" class="node-type">ANSWER</text>
  <text x="1029.0" y="181.0" text-anchor="middle" class="node-title">LLM Runtime</text>
  <rect x="96.0" y="682.0" width="214.0" height="46.0" rx="14.0" fill="#ffffff" stroke="#dce5e3" stroke-width="1.8"/>
  <text x="203.0" y="700.0" text-anchor="middle" class="node-type">TRACES</text>
  <text x="203.0" y="711.0" text-anchor="middle" class="node-title">Observability</text>
  <rect x="390.0" y="682.0" width="194.0" height="46.0" rx="14.0" fill="#ffffff" stroke="#dce5e3" stroke-width="1.8"/>
  <text x="487.0" y="700.0" text-anchor="middle" class="node-type">QUALITY</text>
  <text x="487.0" y="711.0" text-anchor="middle" class="node-title">Evals</text>
  <rect x="664.0" y="682.0" width="198.0" height="46.0" rx="14.0" fill="#ffffff" stroke="#dce5e3" stroke-width="1.8"/>
  <text x="763.0" y="700.0" text-anchor="middle" class="node-type">SAFETY</text>
  <text x="763.0" y="711.0" text-anchor="middle" class="node-title">Guardrails</text>
  <rect x="237.0" y="178.0" width="36" height="20" rx="6" fill="#ffffff" opacity="0.96"/>
  <text x="255.0" y="192.0" text-anchor="middle" class="arrow-label">ask</text>
  <rect x="443.5" y="216.0" width="112" height="20" rx="6" fill="#ffffff" opacity="0.96"/>
  <text x="499.5" y="230.0" text-anchor="middle" class="arrow-label">plan retrieval</text>
  <rect x="273.0" y="336.0" width="84" height="20" rx="6" fill="#ffffff" opacity="0.96"/>
  <text x="315.0" y="350.0" text-anchor="middle" class="arrow-label">query text</text>
  <rect x="543.0" y="336.0" width="84" height="20" rx="6" fill="#ffffff" opacity="0.96"/>
  <text x="585.0" y="350.0" text-anchor="middle" class="arrow-label">similarity</text>
  <rect x="783.0" y="336.0" width="98" height="20" rx="6" fill="#ffffff" opacity="0.96"/>
  <text x="832.0" y="350.0" text-anchor="middle" class="arrow-label">top-k chunks</text>
  <rect x="951.5" y="214.0" width="119" height="20" rx="6" fill="#ffffff" opacity="0.96"/>
  <text x="1011.0" y="228.0" text-anchor="middle" class="arrow-label">grounded prompt</text>
  <rect x="667.5" y="76.0" width="56" height="20" rx="6" fill="#ffffff" opacity="0.96"/>
  <text x="695.5" y="90.0" text-anchor="middle" class="arrow-label">answer</text>
  <rect x="268.5" y="520.0" width="77" height="20" rx="6" fill="#ffffff" opacity="0.96"/>
  <text x="307.0" y="534.0" text-anchor="middle" class="arrow-label">documents</text>
  <rect x="542.0" y="504.0" width="56" height="20" rx="6" fill="#ffffff" opacity="0.96"/>
  <text x="570.0" y="518.0" text-anchor="middle" class="arrow-label">chunks</text>
  <rect x="657.5" y="422.8" width="63" height="20" rx="6" fill="#ffffff" opacity="0.96"/>
  <text x="689.0" y="436.8" text-anchor="middle" class="arrow-label">vectors</text>
  <rect x="680.0" y="592.0" width="70" height="20" rx="6" fill="#ffffff" opacity="0.96"/>
  <text x="715.0" y="606.0" text-anchor="middle" class="arrow-label">metadata</text>
  <rect x="916.5" y="426.0" width="77" height="20" rx="6" fill="#ffffff" opacity="0.96"/>
  <text x="955.0" y="440.0" text-anchor="middle" class="arrow-label">citations</text>
  <line x1="911.0" y1="776.0" x2="941.0" y2="776.0" stroke="#10a37f" stroke-width="2.0" marker-end="url(#arrowA)"/>
  <text x="951.0" y="780.0" class="legend">Request and orchestration</text>
  <line x1="911.0" y1="798.0" x2="941.0" y2="798.0" stroke="#0891b2" stroke-width="2.0" marker-end="url(#arrowC)"/>
  <text x="951.0" y="802.0" class="legend">Retrieval reads</text>
  <line x1="911.0" y1="820.0" x2="941.0" y2="820.0" stroke="#0f766e" stroke-width="2.0" marker-end="url(#arrowB)"/>
  <text x="951.0" y="824.0" class="legend">Index writes</text>
  <line x1="911.0" y1="842.0" x2="941.0" y2="842.0" stroke="#f59e0b" stroke-width="2.0" marker-end="url(#arrowE)"/>
  <text x="951.0" y="846.0" class="legend">Knowledge payload</text>
  <line x1="911.0" y1="864.0" x2="941.0" y2="864.0" stroke="#10a37f" stroke-width="2.0" marker-end="url(#arrowA)"/>
  <text x="951.0" y="868.0" class="legend">Response and telemetry</text>
  <text x="42.0" y="884.0" class="footnote">RAG = Retrieval Augmented Generation</text>
</svg>